<svg xmlns="http://www.w3.org/2000/svg" viewBox="0 0 1120 220" role="img" aria-label="Sigmwah conversion pipeline">
  <defs>
    <linearGradient id="g" x1="0" y1="0" x2="1" y2="0">
      <stop offset="0%" stop-color="#4C8DFF"/>
      <stop offset="100%" stop-color="#2EE6A6"/>
    </linearGradient>
  </defs>
  <rect width="1120" height="220" rx="16" fill="#0B1220"/>
  <rect x="1" y="1" width="1118" height="218" rx="15" fill="none" stroke="#1C2740"/>
  <!-- boxes -->
  <g font-family="ui-sans-serif, system-ui, sans-serif" font-size="13" fill="#E8EEF8">
    <rect x="28" y="48" width="180" height="88" rx="10" fill="#121A2C" stroke="#2EE6A6"/>
    <text x="118" y="86" text-anchor="middle" font-weight="700">Sigma YAML</text>
    <text x="118" y="108" text-anchor="middle" fill="#8AA0C0" font-size="11">pySigma collection</text>

    <rect x="248" y="48" width="180" height="88" rx="10" fill="#121A2C" stroke="#4C8DFF"/>
    <text x="338" y="86" text-anchor="middle" font-weight="700">Filters + pipeline</text>
    <text x="338" y="108" text-anchor="middle" fill="#8AA0C0" font-size="11">select · tags · mappings</text>

    <rect x="468" y="48" width="180" height="88" rx="10" fill="#121A2C" stroke="#4C8DFF"/>
    <text x="558" y="86" text-anchor="middle" font-weight="700">WazuhBackend</text>
    <text x="558" y="108" text-anchor="middle" fill="#8AA0C0" font-size="11">DNF · PCRE2 · IDs</text>

    <rect x="688" y="48" width="180" height="88" rx="10" fill="#121A2C" stroke="#2EE6A6"/>
    <text x="778" y="86" text-anchor="middle" font-weight="700">Wazuh 4.x XML</text>
    <text x="778" y="108" text-anchor="middle" fill="#8AA0C0" font-size="11">analysisd ruleset</text>

    <rect x="908" y="48" width="180" height="88" rx="10" fill="#121A2C" stroke="#6B7C99"/>
    <text x="998" y="86" text-anchor="middle" font-weight="700">Report</text>
    <text x="998" y="108" text-anchor="middle" fill="#8AA0C0" font-size="11">converted · skipped</text>
  </g>
  <g stroke="url(#g)" stroke-width="2" fill="none">
    <path d="M208 92 H248"/>
    <path d="M428 92 H468"/>
    <path d="M648 92 H688"/>
    <path d="M868 92 H908"/>
  </g>
  <text x="560" y="188" text-anchor="middle" fill="#8AA0C0" font-family="ui-sans-serif, system-ui, sans-serif" font-size="12">Unsupported Sigma constructs are skipped with a reason  never silently rewritten.</text>
</svg>
